<?xml version="1.0" encoding="UTF-8"?>
<svg id="Layer_1" data-name="Layer 1" xmlns="http://www.w3.org/2000/svg" viewBox="0 0 315.28 50">
<style>
@keyframes stroke{0%{stroke-dashoffset:var(--len);fill-opacity:0;stroke-width:.5px}100%{stroke-dashoffset:0;fill-opacity:1;stroke-width:1px}}
@keyframes popUp{to{transform:translateY(0) scaleY(1)}}
path{
	fill-opacity:0;fill:currentColor;
	stroke:currentColor;stroke-width:1px;stroke-linecap:round;stroke-linejoin:round;stroke-dasharray:var(--len);stroke-dashoffset:var(--len);
	transform:translateY(10px) scaleY(1.2);animation:stroke 1.8s cubic-bezier(0.4, 0, 0.2, 1) forwards, popUp 0.5s ease 1.8s forwards;
}
.char1{animation-delay:0s;--len:173.97882080078125px}
.char2{animation-delay:.1s;--len:104.10242462158203px}
.char3{animation-delay:.2s;--len:113.14037322998047px}
.char4{animation-delay:.3s;--len:151.166259765625px}
.char5{animation-delay:.4s;--len:188.4058074951172px}
.char6{animation-delay:.5s;--len:151.16644287109375px}
.dot{animation-delay:.6s;--len:27.77288055419922px}
.char7{animation-delay:.7s;--len:138.32223510742188px}
.char8{animation-delay:1.2s;--len:228.20191955566406px}
.char9{animation-delay:1.3s;--len:89.16609191894531px}
.char10{animation-delay:1.4s;--len:142.3752899169922px}
.char11{animation-delay:1.6s;--len:211.0260467529297px}
</style>
<path class="char1" d="M2.73.23c.72,0,1.31.23,1.79.69.47.46.71,1.06.71,1.81v13.2c1.14-1.4,2.53-2.49,4.16-3.28,1.63-.78,3.39-1.17,5.28-1.17,2.35,0,4.48.59,6.38,1.76s3.41,2.8,4.5,4.87c1.09,2.07,1.64,4.38,1.64,6.92s-.59,4.85-1.76,6.92-2.8,3.7-4.87,4.89c-2.07,1.19-4.36,1.79-6.87,1.79s-4.78-.59-6.82-1.79c-2.04-1.19-3.65-2.82-4.84-4.89-1.19-2.07-1.79-4.38-1.79-6.92V2.73C.24,1.98.47,1.38.92.92,1.38.46,1.98.23,2.73.23ZM13.69,34.22c1.63,0,3.11-.4,4.43-1.2,1.32-.8,2.36-1.9,3.13-3.3.77-1.4,1.15-2.97,1.15-4.69s-.38-3.28-1.15-4.67c-.77-1.39-1.81-2.48-3.13-3.28-1.32-.8-2.8-1.2-4.43-1.2s-3.11.4-4.43,1.2c-1.32.8-2.36,1.89-3.11,3.28-.75,1.39-1.12,2.94-1.12,4.67s.37,3.29,1.12,4.69c.75,1.4,1.79,2.5,3.11,3.3,1.32.8,2.8,1.2,4.43,1.2Z" style="--len: 173.97882080078125px;"></path>
<path class="char2" d="M47.51,34.22c.41.46.61,1.04.61,1.76s-.27,1.3-.81,1.76c-.54.46-1.23.68-2.08.68h-.88c-1.6,0-3.06-.42-4.38-1.25-1.32-.83-2.36-1.96-3.11-3.4s-1.12-3.05-1.12-4.84v-12.08h-2.25c-.69,0-1.24-.2-1.66-.59-.42-.39-.64-.88-.64-1.47,0-.65.21-1.17.64-1.56.42-.39.98-.59,1.66-.59h2.25v-7.04c0-.72.23-1.3.68-1.76s1.04-.68,1.76-.68,1.3.23,1.76.68c.46.46.68,1.04.68,1.76v7.04h4.16c.68,0,1.24.2,1.66.59.42.39.64.91.64,1.56,0,.59-.21,1.08-.64,1.47-.42.39-.98.59-1.66.59h-4.16v12.08c0,1.3.36,2.4,1.08,3.28.72.88,1.6,1.32,2.64,1.32h1.66c.59,0,1.08.23,1.49.68Z" style="--len: 104.10242462158203px;"></path>
<path class="char3" d="M45.62,49.16c-.46-.47-.68-1.07-.68-1.79s.23-1.31.68-1.78c.46-.47,1.04-.71,1.76-.71,1.92,0,3.5-.61,4.74-1.83,1.24-1.22,1.86-2.8,1.86-4.72V14.17c0-.75.24-1.35.71-1.81.47-.46,1.07-.68,1.78-.68s1.35.23,1.81.68c.46.46.68,1.06.68,1.81v24.16c0,2.22-.49,4.21-1.47,5.97-.98,1.76-2.35,3.13-4.11,4.11-1.76.98-3.77,1.47-6.02,1.47-.72,0-1.3-.24-1.76-.71ZM54.2,6.37c-.64-.64-.95-1.39-.95-2.27s.32-1.64.95-2.27c.64-.64,1.39-.95,2.27-.95s1.64.32,2.27.95c.64.64.95,1.39.95,2.27s-.32,1.64-.95,2.27-1.39.95-2.27.95-1.64-.32-2.27-.95Z" style="--len: 113.14037322998047px;"></path>
<path class="char4" d="M85.26,13.27c2.04,1.19,3.65,2.82,4.84,4.89,1.19,2.07,1.78,4.38,1.78,6.92v10.91c0,.72-.24,1.31-.71,1.79-.47.47-1.07.71-1.79.71s-1.31-.24-1.78-.71c-.47-.47-.71-1.07-.71-1.79v-1.81c-1.14,1.4-2.53,2.49-4.16,3.28-1.63.78-3.39,1.17-5.28,1.17-2.35,0-4.47-.59-6.38-1.76-1.91-1.17-3.41-2.79-4.5-4.87-1.09-2.07-1.64-4.38-1.64-6.92s.59-4.85,1.76-6.92c1.17-2.07,2.8-3.7,4.87-4.89,2.07-1.19,4.36-1.79,6.87-1.79s4.78.6,6.82,1.79ZM82.86,33.03c1.32-.8,2.35-1.89,3.11-3.28.75-1.39,1.12-2.94,1.12-4.67s-.38-3.29-1.12-4.69c-.75-1.4-1.78-2.5-3.11-3.3-1.32-.8-2.8-1.2-4.43-1.2s-3.11.4-4.43,1.2c-1.32.8-2.36,1.9-3.13,3.3-.77,1.4-1.15,2.97-1.15,4.69s.38,3.28,1.15,4.67c.77,1.39,1.81,2.48,3.13,3.28,1.32.8,2.79,1.2,4.43,1.2s3.11-.4,4.43-1.2Z" style="--len: 151.166259765625px;"></path>
<path class="char5" d="M127.81,12.22c.34.36.51.85.51,1.47,0,.52-.08.99-.24,1.42l-7.24,21.71c-.16.46-.46.84-.88,1.15-.42.31-.9.46-1.42.46-.56,0-1.05-.15-1.49-.46-.44-.31-.73-.69-.86-1.15l-4.79-17.75-5.04,17.75c-.16.46-.46.84-.9,1.15-.44.31-.92.46-1.44.46s-1-.15-1.44-.46c-.44-.31-.74-.69-.9-1.15l-7.24-21.71c-.13-.42-.2-.88-.2-1.37,0-1.37.68-2.05,2.05-2.05.62,0,1.13.18,1.54.54.41.36.74.93,1,1.71l5.28,16.48,4.99-16.87c.16-.55.45-1,.86-1.34.41-.34.94-.51,1.59-.51s1.13.17,1.54.51c.41.34.69.79.86,1.34l4.4,17.21,5.38-16.82c.46-1.5,1.3-2.25,2.54-2.25.69,0,1.2.18,1.54.54Z" style="--len: 188.4058074951172px;"></path>
<path class="char6" d="M151.43,13.27c2.04,1.19,3.65,2.82,4.84,4.89,1.19,2.07,1.78,4.38,1.78,6.92v10.91c0,.72-.24,1.31-.71,1.79-.47.47-1.07.71-1.79.71s-1.31-.24-1.78-.71c-.47-.47-.71-1.07-.71-1.79v-1.81c-1.14,1.4-2.53,2.49-4.16,3.28-1.63.78-3.39,1.17-5.28,1.17-2.35,0-4.47-.59-6.38-1.76-1.91-1.17-3.41-2.79-4.5-4.87-1.09-2.07-1.64-4.38-1.64-6.92s.59-4.85,1.76-6.92c1.17-2.07,2.8-3.7,4.87-4.89,2.07-1.19,4.36-1.79,6.87-1.79s4.78.6,6.82,1.79ZM149.03,33.03c1.32-.8,2.35-1.89,3.11-3.28.75-1.39,1.12-2.94,1.12-4.67s-.38-3.29-1.12-4.69c-.75-1.4-1.78-2.5-3.11-3.3-1.32-.8-2.8-1.2-4.43-1.2s-3.11.4-4.43,1.2c-1.32.8-2.36,1.9-3.13,3.3-.77,1.4-1.15,2.97-1.15,4.69s.38,3.28,1.15,4.67c.77,1.39,1.81,2.48,3.13,3.28,1.32.8,2.79,1.2,4.43,1.2s3.11-.4,4.43-1.2Z" style="--len: 151.16644287109375px;"></path>
<path class="dot" d="M160.69,10.99c-.39-.39-.6-.86-.64-1.42l-.44-6.8c0-.69.24-1.27.73-1.76.49-.49,1.08-.73,1.76-.73s1.22.24,1.71.73c.49.49.73,1.08.73,1.76l-.44,6.8c0,.56-.2,1.03-.59,1.42s-.86.59-1.42.59-1.03-.2-1.42-.59Z" style="--len: 27.77288055419922px;"></path>
<path class="char7" d="M170.72,37.6c-1.96-.68-3.49-1.58-4.6-2.69-.42-.42-.63-.93-.63-1.52,0-.78.33-1.42.98-1.91.62-.46,1.19-.68,1.71-.68.65,0,1.27.29,1.86.88.62.68,1.55,1.28,2.79,1.79,1.24.51,2.56.76,3.96.76,1.86,0,3.3-.31,4.33-.93s1.54-1.45,1.54-2.49-.51-1.85-1.52-2.52c-1.01-.67-2.72-1.23-5.13-1.69-6.26-1.21-9.39-3.78-9.39-7.73,0-1.6.47-2.95,1.42-4.06.95-1.11,2.18-1.94,3.72-2.49,1.53-.55,3.16-.83,4.89-.83,2.12,0,4.02.34,5.7,1.03,1.68.68,3.01,1.63,3.99,2.84.42.52.63,1.04.63,1.56,0,.55-.28,1.06-.83,1.52-.36.26-.81.39-1.37.39-.85,0-1.61-.31-2.3-.93-.81-.75-1.68-1.28-2.59-1.59-.91-.31-2.02-.46-3.32-.46-1.5,0-2.73.25-3.69.76-.96.51-1.44,1.21-1.44,2.13,0,.65.16,1.2.49,1.64s.95.85,1.86,1.22c.91.38,2.23.74,3.96,1.1,3.55.72,6.07,1.71,7.55,2.98,1.48,1.27,2.23,2.92,2.23,4.94,0,1.5-.41,2.86-1.22,4.08-.82,1.22-2.01,2.18-3.6,2.89s-3.48,1.05-5.7,1.05-4.3-.34-6.26-1.03Z" style="--len: 138.32223510742188px;"></path>
<path class="char8" d="M209.35,37.7c-.49-.49-.73-1.09-.73-1.81V2.78c0-.75.24-1.36.73-1.83.49-.47,1.09-.71,1.81-.71h11.69c2.18,0,4.12.43,5.82,1.3s3.02,2.07,3.99,3.62c.96,1.55,1.44,3.3,1.44,5.26,0,1.6-.43,3.03-1.3,4.3-.86,1.27-2.05,2.3-3.55,3.08,2.22.52,3.96,1.56,5.23,3.13s1.91,3.55,1.91,5.97c0,2.22-.53,4.21-1.59,5.97-1.06,1.76-2.54,3.13-4.45,4.11-1.91.98-4.07,1.47-6.48,1.47h-12.71c-.72,0-1.32-.24-1.81-.73ZM222.85,15.93c1.92,0,3.46-.47,4.62-1.42,1.16-.95,1.74-2.31,1.74-4.11s-.58-3.15-1.74-4.08-2.7-1.39-4.62-1.39h-9.15v11h9.15ZM223.88,33.73c2.28,0,4.12-.59,5.53-1.78,1.4-1.19,2.1-2.88,2.1-5.06,0-2.02-.69-3.57-2.08-4.65s-3.24-1.61-5.55-1.61h-10.17v13.11h10.17Z" style="--len: 228.20191955566406px;"></path>
<path class="char9" d="M246.06,37.28c-1.12-.77-2-1.84-2.62-3.23-.62-1.39-.93-2.94-.93-4.67V2.68c0-.72.23-1.3.69-1.76.46-.46,1.04-.69,1.76-.69s1.3.23,1.76.69c.46.46.68,1.04.68,1.76v26.7c0,1.21.23,2.2.68,2.98.46.78,1.04,1.17,1.76,1.17h1.22c.65,0,1.18.23,1.59.68.41.46.61,1.04.61,1.76s-.31,1.3-.93,1.76c-.62.46-1.42.68-2.4.68h-.1c-1.4,0-2.67-.38-3.79-1.15Z" style="--len: 89.16609191894531px;"></path>
<path class="char10" d="M261.83,36.89c-2.05-1.16-3.65-2.76-4.79-4.82-1.14-2.05-1.71-4.38-1.71-6.99s.57-4.99,1.71-7.04c1.14-2.05,2.74-3.66,4.79-4.82,2.05-1.16,4.38-1.74,6.99-1.74s4.88.58,6.92,1.74c2.04,1.16,3.63,2.76,4.79,4.82,1.16,2.05,1.74,4.4,1.74,7.04s-.57,4.94-1.71,6.99c-1.14,2.05-2.73,3.66-4.77,4.82-2.04,1.16-4.36,1.74-6.97,1.74s-4.94-.58-6.99-1.74ZM273.3,33.05c1.32-.78,2.35-1.87,3.08-3.25.73-1.38,1.1-2.96,1.1-4.72s-.37-3.34-1.1-4.74c-.73-1.4-1.76-2.49-3.08-3.28-1.32-.78-2.81-1.17-4.47-1.17s-3.16.39-4.48,1.17c-1.32.78-2.36,1.88-3.11,3.28-.75,1.4-1.12,2.98-1.12,4.74s.37,3.33,1.12,4.72c.75,1.39,1.79,2.47,3.11,3.25,1.32.78,2.81,1.17,4.48,1.17s3.15-.39,4.47-1.17Z" style="--len: 142.3752899169922px;"></path>
<path class="char11" d="M308.75,13.22c2.04,1.16,3.63,2.76,4.79,4.82,1.16,2.05,1.74,4.4,1.74,7.04v10.56c0,2.58-.57,4.92-1.71,7.04-1.14,2.12-2.75,3.79-4.82,5.01-2.07,1.22-4.41,1.83-7.02,1.83-2.35,0-4.53-.46-6.55-1.39-2.02-.93-3.72-2.26-5.09-3.99-.36-.46-.54-.91-.54-1.37,0-.68.34-1.27,1.03-1.76.46-.29.91-.44,1.37-.44.81,0,1.48.34,2,1.03.88,1.14,1.99,2.01,3.33,2.62s2.85.91,4.55.91c1.6,0,3.05-.38,4.35-1.15,1.3-.77,2.35-1.89,3.13-3.38.78-1.48,1.17-3.25,1.17-5.31v-2.4c-1.01,1.79-2.35,3.2-4.01,4.21s-3.54,1.52-5.62,1.52c-2.41,0-4.57-.58-6.48-1.74s-3.39-2.76-4.45-4.82c-1.06-2.05-1.59-4.38-1.59-6.99s.57-4.99,1.71-7.04c1.14-2.05,2.74-3.66,4.79-4.82,2.05-1.16,4.38-1.74,6.99-1.74s4.88.58,6.92,1.74ZM306.31,33.05c1.32-.78,2.35-1.87,3.08-3.25.73-1.38,1.1-2.96,1.1-4.72s-.37-3.34-1.1-4.74c-.73-1.4-1.76-2.49-3.08-3.28-1.32-.78-2.81-1.17-4.47-1.17s-3.16.39-4.48,1.17c-1.32.78-2.36,1.88-3.11,3.28-.75,1.4-1.12,2.98-1.12,4.74s.37,3.33,1.12,4.72c.75,1.39,1.79,2.47,3.11,3.25,1.32.78,2.81,1.17,4.48,1.17s3.15-.39,4.47-1.17Z" style="--len: 211.0260467529297px;"></path>
</svg>